<svg width="107" height="108" viewBox="0 0 107 108" fill="none" xmlns="http://www.w3.org/2000/svg">
<g filter="url(#filter0_d_53_46)">
<rect x="8" y="51" width="64" height="64" transform="rotate(-45 8 51)" fill="#C90930"/>
<path d="M44.375 35.375L42.8125 38C42.625 38.4375 42.5 38.875 42.5 39.375V39.5C42.5 40.9375 43.5625 42 45 42C46.375 42 47.5 40.9375 47.5 39.5V39.375C47.5 38.875 47.375 38.4375 47.125 38L45.5625 35.375C45.4375 35.1875 45.25 35 45 35C44.75 35 44.5 35.1875 44.375 35.375ZM52.375 35.375L50.8125 38C50.625 38.4375 50.5 38.875 50.5 39.375V39.5C50.5 40.9375 51.5625 42 53 42C54.375 42 55.5 40.9375 55.5 39.5V39.375C55.5 38.875 55.375 38.4375 55.125 38L53.5625 35.375C53.4375 35.1875 53.25 35 53 35C52.75 35 52.5 35.1875 52.375 35.375ZM58.8125 38C58.625 38.4375 58.5 38.875 58.5 39.375V39.5C58.5 40.9375 59.5625 42 61 42C62.375 42 63.5 40.9375 63.5 39.5V39.375C63.5 38.875 63.375 38.4375 63.125 38L61.5625 35.375C61.4375 35.1875 61.25 35 61 35C60.75 35 60.5 35.1875 60.375 35.375L58.8125 38ZM47 46C47 44.9375 46.0625 44 45 44C43.875 44 43 44.9375 43 46V49C40.75 49 39 50.8125 39 53V57.4375C39.5 57.8125 40.125 58 40.75 58C41.625 58 42.5 57.625 43.1875 57.1875C43.5 57 43.8125 56.75 44 56.5625C44.0625 56.5 44.125 56.4375 44.1875 56.375C44.25 56.375 44.25 56.375 44.25 56.3125C44.4375 56.125 44.75 56 45 56.0625C45.3125 56.0625 45.5625 56.1875 45.75 56.375C45.75 56.375 45.75 56.375 45.75 56.4375C45.8125 56.4375 45.875 56.5 46 56.625C46.125 56.75 46.375 57 46.6875 57.1875C47.375 57.625 48.125 58 49 58C49.8125 58 50.625 57.625 51.25 57.1875C51.5625 57 51.8125 56.75 52 56.625C52.0625 56.5 52.125 56.4375 52.1875 56.4375C52.1875 56.375 52.1875 56.375 52.25 56.375C52.4375 56.125 52.6875 56.0625 53 56.0625C53.25 56.0625 53.5625 56.1875 53.75 56.375C53.75 56.375 53.75 56.375 53.75 56.4375C53.8125 56.4375 53.875 56.5 54 56.625C54.125 56.75 54.375 57 54.6875 57.1875C55.375 57.625 56.125 58 57 58C57.8125 58 58.625 57.625 59.25 57.1875C59.5625 57 59.8125 56.75 60 56.625C60.0625 56.5 60.125 56.4375 60.1875 56.4375C60.1875 56.375 60.1875 56.375 60.25 56.375C60.4375 56.1875 60.6875 56.0625 60.9375 56.0625C61.25 56 61.5 56.125 61.6875 56.3125C61.6875 56.375 61.75 56.375 61.75 56.375C61.8125 56.4375 61.875 56.5 62 56.5625C62.1875 56.75 62.4375 57 62.8125 57.1875C63.5 57.625 64.3125 58 65.1875 58C65.875 58 66.4375 57.8125 67 57.4375V53C67 50.8125 65.1875 49 63 49V46C63 44.9375 62.0625 44 61 44C59.875 44 59 44.9375 59 46V49H55V46C55 44.9375 54.0625 44 53 44C51.875 44 51 44.9375 51 46V49H47V46ZM67 59.6875C66.4375 59.875 65.8125 60 65.1875 60C63.75 60 62.5 59.4375 61.6875 58.875C61.4375 58.6875 61.1875 58.5 61 58.375C60.8125 58.5 60.625 58.6875 60.375 58.875C59.5625 59.375 58.375 60 57 60C55.5625 60 54.375 59.375 53.5625 58.875C53.3125 58.6875 53.125 58.5625 53 58.375C52.8125 58.5625 52.625 58.6875 52.375 58.875C51.5625 59.375 50.375 60 49 60C47.5625 60 46.375 59.375 45.5625 58.875C45.3125 58.6875 45.125 58.5 44.9375 58.375C44.75 58.5 44.5 58.6875 44.25 58.875C43.4375 59.4375 42.1875 60 40.75 60C40.125 60 39.5 59.875 39 59.6875V65C39 66.125 39.875 67 41 67H65C66.0625 67 67 66.125 67 65V59.6875Z" fill="white"/>
</g>
<defs>
<filter id="filter0_d_53_46" x="0" y="0.745178" width="106.51" height="106.51" filterUnits="userSpaceOnUse" color-interpolation-filters="sRGB">
<feFlood flood-opacity="0" result="BackgroundImageFix"/>
<feColorMatrix in="SourceAlpha" type="matrix" values="0 0 0 0 0 0 0 0 0 0 0 0 0 0 0 0 0 0 127 0" result="hardAlpha"/>
<feOffset dy="3"/>
<feGaussianBlur stdDeviation="4"/>
<feComposite in2="hardAlpha" operator="out"/>
<feColorMatrix type="matrix" values="0 0 0 0 0 0 0 0 0 0 0 0 0 0 0 0 0 0 0.25 0"/>
<feBlend mode="normal" in2="BackgroundImageFix" result="effect1_dropShadow_53_46"/>
<feBlend mode="normal" in="SourceGraphic" in2="effect1_dropShadow_53_46" result="shape"/>
</filter>
</defs>
</svg>
