<svg width="107" height="108" viewBox="0 0 107 108" fill="none" xmlns="http://www.w3.org/2000/svg">
<g filter="url(#filter0_d_53_38)">
<rect x="8" y="51" width="64" height="64" transform="rotate(-45 8 51)" fill="#C90930"/>
<path d="M42 39C40.3125 39 39 40.375 39 42C39 43 39.4375 43.875 40.1875 44.4375L53.75 54.625C54.5 55.1875 55.4375 55.1875 56.1875 54.625L69.75 44.4375C70.5 43.875 71 43 71 42C71 40.375 69.625 39 68 39H42ZM39 46V59C39 61.25 40.75 63 43 63H67C69.1875 63 71 61.25 71 59V46L57.375 56.25C55.9375 57.3125 54 57.3125 52.5625 56.25L39 46Z" fill="white"/>
</g>
<defs>
<filter id="filter0_d_53_38" x="0" y="0.745117" width="106.51" height="106.51" filterUnits="userSpaceOnUse" color-interpolation-filters="sRGB">
<feFlood flood-opacity="0" result="BackgroundImageFix"/>
<feColorMatrix in="SourceAlpha" type="matrix" values="0 0 0 0 0 0 0 0 0 0 0 0 0 0 0 0 0 0 127 0" result="hardAlpha"/>
<feOffset dy="3"/>
<feGaussianBlur stdDeviation="4"/>
<feComposite in2="hardAlpha" operator="out"/>
<feColorMatrix type="matrix" values="0 0 0 0 0 0 0 0 0 0 0 0 0 0 0 0 0 0 0.25 0"/>
<feBlend mode="normal" in2="BackgroundImageFix" result="effect1_dropShadow_53_38"/>
<feBlend mode="normal" in="SourceGraphic" in2="effect1_dropShadow_53_38" result="shape"/>
</filter>
</defs>
</svg>
