<svg width="107" height="108" viewBox="0 0 107 108" fill="none" xmlns="http://www.w3.org/2000/svg">
<g filter="url(#filter0_d_53_72)">
<rect x="8" y="51" width="64" height="64" transform="rotate(-45 8 51)" fill="#C90930"/>
<path d="M70.4375 37.6875C71.0625 37.125 71.125 36.1875 70.625 35.5625C70.0625 34.9375 69.125 34.875 68.5 35.375L67.875 35.9375C67.5 36.25 67.0625 36.375 66.5625 36.375C63.9375 36.3125 61.6875 38.375 61.5625 41L61.4375 42.875C61.375 43.9375 60.5 44.75 59.4375 44.6875C58.25 44.6875 57.0625 45.0625 56.125 45.875L55.5 46.375C54.875 46.9375 54.8125 47.875 55.3125 48.5C55.875 49.125 56.8125 49.1875 57.4375 48.6875L58.0625 48.125C58.4375 47.8125 58.875 47.6875 59.375 47.6875C62 47.75 64.25 45.6875 64.4375 43.0625L64.5 41.1875C64.5625 40.125 65.4375 39.3125 66.5 39.375C67.6875 39.375 68.875 39 69.8125 38.1875L70.4375 37.6875ZM53.5 35C52.625 35 52 35.6875 52 36.5C52 38.4375 51.3125 39.9375 50.6875 40.9375C50.375 41.4375 50.0625 41.8125 49.8125 42.0625C49.75 42.1875 49.625 42.25 49.5625 42.3125C49.5625 42.375 49.5 42.375 49.5 42.375C48.875 42.9375 48.8125 43.875 49.3125 44.5C49.875 45.125 50.8125 45.1875 51.4375 44.6875L50.5 43.5C51.4375 44.6875 51.4375 44.6875 51.4375 44.6875L51.5 44.625C51.5 44.5625 51.5625 44.5625 51.625 44.5C51.75 44.375 51.875 44.25 52.0625 44.0625C52.375 43.75 52.8125 43.1875 53.25 42.5C54.125 41.125 55 39.125 55 36.5C55 35.6875 54.3125 35 53.5 35ZM45 37C45 35.9375 44.0625 35 43 35C41.875 35 41 35.9375 41 37C41 38.125 41.875 39 43 39C44.0625 39 45 38.125 45 37ZM71 45C71 43.9375 70.0625 43 69 43C67.875 43 67 43.9375 67 45C67 46.125 67.875 47 69 47C70.0625 47 71 46.125 71 45ZM69 65C70.0625 65 71 64.125 71 63C71 61.9375 70.0625 61 69 61C67.875 61 67 61.9375 67 63C67 64.125 67.875 65 69 65ZM63.6875 56.4375V56.375C63.6875 56.375 63.75 56.375 63.75 56.3125C63.8125 56.25 63.875 56.1875 64 56.0625C64.25 55.75 64.625 55.4375 65.125 55.0625C66.125 54.4375 67.5 53.8125 69.3125 54C70.125 54.125 70.875 53.5 70.9375 52.6875C71.0625 51.875 70.4375 51.125 69.625 51.0625C66.9375 50.75 64.8125 51.625 63.4375 52.625C62.75 53.0625 62.1875 53.5625 61.875 53.9375C61.6875 54.125 61.5 54.3125 61.4375 54.4375C61.375 54.5 61.3125 54.5625 61.3125 54.5625L61.25 54.625V54.6875C61.25 54.6875 61.25 54.6875 62.5 55.5625L61.25 54.6875C60.75 55.3125 60.9375 56.25 61.625 56.75C62.25 57.25 63.1875 57.0625 63.6875 56.4375ZM46.5625 47.0625C45.875 47.1875 45.3125 47.6875 45.125 48.3125L44.1875 50.8125L55.1875 61.8125L57.6875 60.875C58.3125 60.6875 58.75 60.125 58.9375 59.4375C59.0625 58.8125 58.875 58.125 58.375 57.625L48.375 47.625C47.875 47.125 47.1875 46.9375 46.5625 47.0625ZM43.375 52.875L42 56.625L49.375 64L53.125 62.625L43.375 52.875ZM47.3125 64.8125L41.1875 58.6875L39.125 64.3125C38.8125 65.0625 39 65.875 39.5625 66.4375C40.125 67 40.9375 67.1875 41.6875 66.875L47.3125 64.8125Z" fill="white"/>
</g>
<defs>
<filter id="filter0_d_53_72" x="0" y="0.745117" width="106.51" height="106.51" filterUnits="userSpaceOnUse" color-interpolation-filters="sRGB">
<feFlood flood-opacity="0" result="BackgroundImageFix"/>
<feColorMatrix in="SourceAlpha" type="matrix" values="0 0 0 0 0 0 0 0 0 0 0 0 0 0 0 0 0 0 127 0" result="hardAlpha"/>
<feOffset dy="3"/>
<feGaussianBlur stdDeviation="4"/>
<feComposite in2="hardAlpha" operator="out"/>
<feColorMatrix type="matrix" values="0 0 0 0 0 0 0 0 0 0 0 0 0 0 0 0 0 0 0.25 0"/>
<feBlend mode="normal" in2="BackgroundImageFix" result="effect1_dropShadow_53_72"/>
<feBlend mode="normal" in="SourceGraphic" in2="effect1_dropShadow_53_72" result="shape"/>
</filter>
</defs>
</svg>
