<svg width="91" height="92" viewBox="0 0 91 92" fill="none" xmlns="http://www.w3.org/2000/svg">
<rect y="46" width="64" height="64" transform="rotate(-45 0 46)" fill="#C90930"/>
<path d="M39 30C40.0625 30 41 30.9375 41 32V34H49V32C49 30.9375 49.875 30 51 30C52.0625 30 53 30.9375 53 32V34H56C57.625 34 59 35.375 59 37V40H31V37C31 35.375 32.3125 34 34 34H37V32C37 30.9375 37.875 30 39 30ZM31 42H59V59C59 60.6875 57.625 62 56 62H34C32.3125 62 31 60.6875 31 59V42ZM35 47V49C35 49.5625 35.4375 50 36 50H38C38.5 50 39 49.5625 39 49V47C39 46.5 38.5 46 38 46H36C35.4375 46 35 46.5 35 47ZM43 47V49C43 49.5625 43.4375 50 44 50H46C46.5 50 47 49.5625 47 49V47C47 46.5 46.5 46 46 46H44C43.4375 46 43 46.5 43 47ZM52 46C51.4375 46 51 46.5 51 47V49C51 49.5625 51.4375 50 52 50H54C54.5 50 55 49.5625 55 49V47C55 46.5 54.5 46 54 46H52ZM35 55V57C35 57.5625 35.4375 58 36 58H38C38.5 58 39 57.5625 39 57V55C39 54.5 38.5 54 38 54H36C35.4375 54 35 54.5 35 55ZM44 54C43.4375 54 43 54.5 43 55V57C43 57.5625 43.4375 58 44 58H46C46.5 58 47 57.5625 47 57V55C47 54.5 46.5 54 46 54H44ZM51 55V57C51 57.5625 51.4375 58 52 58H54C54.5 58 55 57.5625 55 57V55C55 54.5 54.5 54 54 54H52C51.4375 54 51 54.5 51 55Z" fill="white"/>
</svg>
