<svg width="69" height="68" viewBox="0 0 69 68" fill="none" xmlns="http://www.w3.org/2000/svg">
<rect width="48" height="48" transform="matrix(0.711717 -0.702467 0.711717 0.702467 0 34)" fill="#C90930"/>
<path d="M27.5 24.5V26H25.25C23.9844 26 23 27.0312 23 28.25V30.5H44V28.25C44 27.0312 42.9688 26 41.75 26H39.5V24.5C39.5 23.7031 38.7969 23 38 23C37.1562 23 36.5 23.7031 36.5 24.5V26H30.5V24.5C30.5 23.7031 29.7969 23 29 23C28.1562 23 27.5 23.7031 27.5 24.5ZM44 32H23V44.75C23 46.0156 23.9844 47 25.25 47H41.75C42.9688 47 44 46.0156 44 44.75V32Z" fill="white"/>
</svg>
