<svg width="69" height="68" viewBox="0 0 69 68" fill="none" xmlns="http://www.w3.org/2000/svg">
<rect width="48" height="48" transform="matrix(0.711717 -0.702467 0.711717 0.702467 0 34)" fill="#C90930"/>
<path d="M35.0781 46.4375C37.5156 43.3906 43 36.125 43 32C43 27.0312 38.9688 23 34 23C29.0312 23 25 27.0312 25 32C25 36.125 30.4844 43.3906 32.875 46.4375C33.4375 47.1406 34.5156 47.1406 35.0781 46.4375ZM34 35C32.3125 35 31 33.6875 31 32C31 30.3594 32.3125 29 34 29C35.6406 29 37 30.3594 37 32C37 33.6875 35.6406 35 34 35Z" fill="white"/>
</svg>
